<svg width="391" height="520" viewBox="0 0 391 520" fill="none" xmlns="http://www.w3.org/2000/svg">
<g clip-path="url(#clip0)">
<path d="M31.0211 363.844L34.3687 291.12L0 190.064L38.609 180.249L57.3556 239.588L80.7888 169.541L118.505 159.948L73.8704 280.858L70.5228 353.582L31.0211 363.844Z" fill="white"/>
<path d="M175.191 329.713C164.256 332.613 154.882 333.505 147.294 332.836C139.707 332.166 133.681 329.713 129.441 325.474C124.977 321.235 122.076 315.882 120.29 309.189C118.505 302.497 117.836 294.243 118.282 284.427L121.406 216.388C121.853 206.572 123.415 197.872 125.647 190.064C128.101 182.257 131.672 175.341 136.582 168.872C141.492 162.402 147.741 156.825 155.552 152.364C163.363 147.679 172.736 144.11 183.895 141.21C205.32 135.856 220.495 136.971 229.422 144.779C238.349 152.587 242.143 166.418 241.25 186.049L238.126 253.865C237.233 273.719 231.877 290.004 222.058 302.497C212.015 315.212 196.616 324.136 175.191 329.713ZM168.496 303.389C170.728 303.835 173.183 303.612 176.307 302.72C179.431 301.828 182.109 300.712 184.341 299.374C186.573 297.812 188.358 296.251 189.697 294.466C191.036 292.681 192.152 290.674 193.045 288.22C193.938 285.766 194.384 283.535 194.83 281.304C195.054 279.073 195.277 276.619 195.5 273.719L199.517 187.387C199.74 184.487 199.74 182.033 199.517 179.803C199.517 177.795 199.071 175.787 198.401 173.779C197.732 171.772 196.839 170.21 195.723 169.095C194.607 167.979 192.822 167.31 190.59 167.087C188.358 166.864 185.68 167.087 182.556 167.756C179.431 168.649 176.753 169.764 174.522 171.103C172.29 172.441 170.504 174.003 169.165 175.787C167.826 177.572 166.934 179.58 166.041 182.033C165.148 184.487 164.702 186.718 164.479 188.949C164.256 191.18 164.032 193.634 163.809 196.534L159.792 282.643C159.569 285.543 159.569 287.997 159.792 290.227C159.792 292.235 160.238 294.466 160.908 296.474C161.578 298.481 162.47 300.266 163.586 301.381C164.702 302.274 166.264 302.943 168.496 303.389Z" fill="white"/>
<path d="M312.666 294.689C301.284 297.589 291.911 298.704 284.323 297.812C276.735 297.143 270.933 294.466 266.916 290.004C262.899 285.543 259.997 279.966 258.658 273.273C257.319 266.581 256.65 257.881 257.319 247.619L263.122 123.363L303.516 113.102L297.491 242.042C297.267 245.611 297.267 248.511 297.267 250.965C297.267 253.419 297.714 255.873 298.16 258.55C298.83 261.227 299.499 263.235 300.838 264.573C301.954 265.912 303.739 267.027 305.971 267.473C308.203 268.142 310.881 267.919 314.005 267.027C317.13 266.135 320.031 265.019 322.263 263.235C324.718 261.45 326.503 259.665 327.842 257.658C329.181 255.65 330.297 253.196 331.19 250.073C332.082 247.173 332.529 244.273 332.975 241.819C333.198 239.365 333.421 236.242 333.645 232.673L339.67 103.732L380.065 93.4706L374.262 217.726C373.816 227.988 372.477 237.134 370.245 244.942C368.013 252.75 364.666 259.888 360.202 266.358C355.516 273.05 349.49 278.627 341.679 283.312C333.868 287.997 324.271 291.789 312.666 294.689Z" fill="white"/>
<path d="M10.7123 164.41L3.79395 94.363L17.6307 90.7938L20.9783 133.848L30.3516 87.6706L41.2871 84.9937L46.6433 127.379L54.2312 81.8706L67.8447 78.3013L54.008 153.702L40.1712 156.826L34.5919 112.879L24.7723 160.841L10.7123 164.41Z" fill="white"/>
<path d="M73.4238 148.348L76.9946 75.8474L93.2863 71.6088L91.9472 101.502L106.007 97.9323L107.346 68.0395L123.638 63.801L120.29 136.525L103.999 140.764L105.561 108.417L91.5009 111.986L89.9387 144.333L73.4238 148.348Z" fill="white"/>
<path d="M154.882 128.717C150.642 129.833 146.848 130.279 143.947 129.833C141.046 129.61 138.591 128.494 136.805 126.933C135.02 125.371 133.904 123.14 133.235 120.463C132.565 117.786 132.342 114.44 132.565 110.648L133.904 83.8782C134.127 80.0858 134.574 76.5165 135.69 73.3934C136.582 70.2703 138.144 67.5933 139.93 64.9164C141.938 62.4625 144.393 60.2317 147.518 58.447C150.642 56.6624 154.436 55.1008 158.676 53.9854C167.157 51.7546 173.183 52.2008 176.53 55.3239C180.101 58.447 181.663 63.801 181.217 71.6088L179.878 98.3784C179.432 106.186 177.423 112.656 173.406 117.563C169.389 122.471 163.363 126.71 154.882 128.717ZM152.204 118.456C153.097 118.679 153.99 118.456 155.329 118.233C156.668 118.009 157.561 117.563 158.453 116.894C159.346 116.225 160.015 115.779 160.685 114.886C161.131 114.217 161.578 113.325 162.024 112.432C162.247 111.54 162.47 110.648 162.694 109.755C162.917 108.863 162.917 107.971 162.917 106.632L164.479 72.7242C164.479 71.6088 164.479 70.4934 164.479 69.8241C164.479 69.1549 164.256 68.2626 164.033 67.3703C163.809 66.4779 163.363 66.0318 162.917 65.5856C162.47 65.1394 161.801 64.9164 160.908 64.6933C160.015 64.4702 158.9 64.6933 157.784 64.9164C156.668 65.1394 155.552 65.5856 154.659 66.2549C153.767 66.9241 153.097 67.3702 152.651 68.0395C152.204 68.7087 151.758 69.6011 151.312 70.4934C151.089 71.3857 150.865 72.278 150.642 73.1703C150.419 74.0627 150.419 74.955 150.419 76.0704L148.857 109.979C148.857 111.094 148.857 112.209 148.857 112.879C148.857 113.771 149.08 114.44 149.303 115.332C149.526 116.225 149.973 116.894 150.419 117.34C150.642 118.009 151.312 118.233 152.204 118.456Z" fill="white"/>
<path d="M221.611 110.871L214.47 40.8237L228.306 37.2545L231.877 80.0859L241.251 33.9082L252.186 31.2313L257.542 73.6165L265.13 28.1082L278.744 24.5389L264.907 99.94L251.293 103.509L245.491 59.3394L235.671 107.302L221.611 110.871Z" fill="white"/>
<path d="M284.546 94.8092L287.894 22.085L304.186 18.0696L300.838 90.7937L284.546 94.8092Z" fill="white"/>
<path d="M312.666 87.6706L316.014 14.9465L332.305 10.7079L329.404 73.3935L348.151 68.7088L347.704 78.7474L312.666 87.6706Z" fill="white"/>
<path d="M355.516 76.7396L358.863 4.0155L375.155 -0.223022L372.254 62.4625L391 57.7778L390.554 67.8164L355.516 76.7396Z" fill="white"/>
<path d="M15.6221 462.668L4.46338 397.975L17.8538 394.629L24.549 439.022L35.0381 390.167L48.8749 386.598L31.2442 458.653L15.6221 462.668Z" fill="white"/>
<path d="M73.2007 449.06C69.1836 450.176 65.6128 450.399 62.9347 450.176C60.0334 449.953 57.8017 449.06 56.2395 447.499C54.6773 445.937 53.5614 443.93 52.8919 441.476C52.2224 439.022 51.9992 435.899 52.2224 432.329L53.3382 407.121C53.5614 403.552 54.0078 400.206 54.9004 397.306C55.7931 394.406 57.1322 391.729 58.9176 389.498C60.703 387.267 63.1579 385.036 66.0591 383.252C68.9604 381.467 72.5312 380.129 76.5483 379.013C84.5825 377.006 90.1619 377.452 93.5095 380.352C96.8571 383.252 98.1961 388.383 97.973 395.744L96.8571 420.952C96.4107 428.314 94.6253 434.337 90.8314 439.022C87.0374 443.707 81.2349 447.053 73.2007 449.06ZM70.7458 439.245C71.6385 439.468 72.5312 439.245 73.647 439.022C74.7629 438.799 75.8788 438.353 76.5483 437.683C77.2178 437.014 78.1105 436.568 78.5568 435.899C79.0032 435.229 79.4495 434.56 79.6727 433.668C79.8959 432.776 80.1191 431.883 80.3422 430.991C80.3422 430.099 80.5654 429.206 80.5654 428.091L82.1276 396.19C82.1276 395.075 82.1276 394.183 82.1276 393.29C82.1276 392.621 81.9044 391.729 81.6813 391.06C81.4581 390.39 81.0118 389.721 80.5654 389.275C80.1191 388.829 79.4495 388.606 78.78 388.606C77.8873 388.383 76.9946 388.606 75.8788 388.829C74.7629 389.052 73.647 389.498 72.9775 390.167C72.0848 390.613 71.4153 391.283 70.9689 391.952C70.5226 392.621 70.0762 393.29 69.8531 394.183C69.6299 395.075 69.4067 395.967 69.1836 396.637C68.9604 397.306 68.9604 398.421 68.9604 399.537L67.3982 431.437C67.3982 432.553 67.3982 433.445 67.3982 434.337C67.3982 435.006 67.6213 435.899 67.8445 436.568C68.0677 437.46 68.2909 437.906 68.7372 438.353C69.1836 438.799 69.8531 439.022 70.7458 439.245Z" fill="white"/>
<path d="M111.81 438.353L114.488 380.352L102.437 383.475L102.883 373.213L142.161 363.175L141.715 373.436L129.887 376.336L127.209 434.337L111.81 438.353Z" fill="white"/>
<path d="M144.393 430.099L147.518 361.836L180.324 353.582L179.878 363.175L162.47 367.636L161.577 385.706L175.191 382.359L174.745 392.175L161.131 395.521L160.238 416.937L177.869 412.475L177.423 421.845L144.393 430.099Z" fill="white"/>
<path d="M206.882 414.037L210.006 345.774L241.92 337.743L241.474 347.336L224.959 351.574L224.066 370.09L237.903 366.521L237.457 376.336L223.62 379.906L222.281 410.468L206.882 414.037Z" fill="white"/>
<path d="M266.469 399.983C262.452 401.098 258.881 401.321 256.203 401.098C253.302 400.875 251.07 399.983 249.508 398.421C247.946 396.86 246.83 394.852 246.16 392.398C245.491 389.944 245.268 386.821 245.491 383.252L246.607 358.044C246.83 354.474 247.276 351.128 248.169 348.228C249.062 345.328 250.401 342.651 252.186 340.42C253.972 337.967 256.426 335.959 259.328 334.174C262.229 332.39 265.8 331.051 269.817 329.936C277.851 327.928 283.43 328.374 286.778 331.274C290.126 334.174 291.465 339.305 291.241 346.667L290.126 371.875C289.679 379.236 287.894 385.26 284.1 389.944C280.083 394.629 274.28 397.975 266.469 399.983ZM264.014 390.167C264.907 390.39 265.8 390.167 266.916 389.944C268.031 389.721 269.147 389.275 269.817 388.606C270.71 388.16 271.379 387.49 271.825 386.821C272.272 386.152 272.718 385.483 272.941 384.59C273.164 383.698 273.388 382.806 273.611 381.913C273.834 381.021 273.834 380.129 273.834 379.013L275.396 347.113C275.396 345.997 275.396 345.105 275.396 344.213C275.396 343.544 275.173 342.651 274.95 341.982C274.727 341.313 274.28 340.643 273.834 340.197C273.388 339.751 272.718 339.528 272.049 339.528C271.156 339.305 270.263 339.528 269.147 339.751C268.031 339.974 266.916 340.42 266.246 341.09C265.353 341.536 264.684 342.205 264.237 342.874C263.791 343.544 263.345 344.213 263.122 345.105C262.898 345.997 262.675 346.89 262.452 347.559C262.452 348.451 262.229 349.344 262.229 350.459L260.667 382.359C260.667 383.475 260.667 384.367 260.667 385.26C260.667 385.929 260.89 386.821 261.113 387.49C261.336 388.16 261.559 388.829 262.006 389.275C262.452 389.721 263.122 389.944 264.014 390.167Z" fill="white"/>
<path d="M297.937 391.06L301.061 322.797L320.031 317.889C324.048 316.774 327.395 316.328 330.297 316.105C333.198 315.882 335.653 316.328 337.885 316.997C340.116 317.889 341.679 319.228 342.571 321.236C343.464 323.243 343.91 326.143 343.91 329.713C343.687 334.174 342.794 337.743 341.232 340.867C339.67 343.99 337.215 346.667 333.867 348.897L342.794 379.683L327.172 383.698L320.031 355.144L314.675 356.482L313.335 387.267L297.937 391.06ZM315.121 348.005L318.915 347.113C322.709 346.221 325.164 344.659 326.949 342.651C328.511 340.644 329.404 337.967 329.627 334.397C329.85 331.051 329.181 328.82 327.842 327.482C326.503 326.366 324.271 326.143 320.7 327.036L316.014 328.151L315.121 348.005Z" fill="white"/>
<path d="M358.863 358.044L359.309 347.336C369.798 336.851 375.378 327.928 375.601 320.343C375.601 320.12 375.601 319.674 375.601 319.451C375.601 317.443 375.154 316.328 374.039 315.435C372.923 314.766 371.584 314.543 369.798 314.989C368.013 315.435 366.674 316.328 365.781 317.443C364.888 318.559 364.442 319.674 364.442 321.012C364.442 321.235 364.442 321.459 364.442 321.682C364.442 322.797 364.665 324.136 365.112 325.474L352.168 331.274C351.498 328.82 351.275 326.813 351.275 325.474C351.275 324.805 351.275 323.912 351.275 323.243C351.498 319.228 352.837 315.659 355.515 312.312C358.64 308.52 363.549 305.62 370.021 304.058C376.494 302.497 381.403 302.72 384.751 304.728C388.099 306.958 389.661 310.751 389.438 316.105C389.214 321.012 387.429 326.143 384.081 331.497C380.734 336.851 376.717 341.759 371.807 346.444L371.361 354.698L358.863 358.044ZM357.747 375.89L358.416 363.621L372.253 360.051L371.584 372.321L357.747 375.89Z" fill="white"/>
<path d="M10.2661 520L10.4893 515.984L18.9699 502.6C18.9699 502.377 19.4162 501.93 19.8626 501.038C20.5321 500.146 20.7553 499.477 20.9784 499.253C21.2016 499.03 21.4248 498.361 21.8711 497.692C22.3175 497.023 22.5407 496.353 22.5407 495.907C22.7638 495.461 22.7638 494.792 22.7638 494.346C22.7638 493.23 22.5407 492.561 22.0943 492.115C21.648 491.669 21.2016 491.669 20.5321 491.892C20.5321 491.892 20.3089 491.892 20.0857 491.892C18.3004 492.561 17.4077 494.123 17.1845 497.023V498.361L11.1588 500.146V498.584C11.1588 497.246 11.382 495.907 11.8283 494.792C12.2747 493.676 12.721 492.561 13.6137 491.446C14.5064 490.33 15.3991 489.438 16.515 488.769C17.6308 488.099 19.1931 487.43 20.7553 486.984C23.6565 486.315 25.8883 486.315 27.2273 487.43C28.5663 488.546 29.2359 490.107 29.2359 492.784C29.2359 493.676 29.0127 494.569 28.7895 495.238C28.5663 496.13 28.12 496.8 27.6736 497.692C27.2273 498.584 26.781 499.253 26.3346 499.923C25.8883 500.592 25.4419 501.261 24.7724 502.377C24.5492 502.6 24.326 502.823 24.326 503.046L17.4077 513.531L27.2273 511.077L27.0041 515.538L10.2661 520Z" fill="#F0C325"/>
<path d="M39.9484 512.861C37.0471 513.531 35.0385 513.308 33.4763 512.192C31.9141 511.077 31.4678 509.069 31.4678 506.392L32.1373 493.007C32.3605 490.33 33.03 487.876 34.5922 486.092C36.1544 484.084 38.3862 482.746 41.2874 482.076C44.1887 481.407 46.4204 481.63 47.7594 482.746C49.0985 483.861 49.768 485.869 49.768 488.546L49.0985 501.93C48.8753 504.607 48.2058 506.838 46.4204 508.846C44.635 510.854 42.8496 512.192 39.9484 512.861ZM40.1715 507.731C41.7338 507.284 42.6264 505.946 42.8496 503.269L43.5191 490.107C43.5191 489.661 43.5191 489.215 43.5191 488.769C43.5191 488.323 43.5191 488.1 43.296 487.653C43.0728 487.207 42.8496 486.984 42.6264 486.761C42.1801 486.538 41.9569 486.538 41.2874 486.761C40.8411 486.761 40.6179 486.984 40.3947 487.207C40.1715 487.43 39.9484 487.653 39.7252 487.876C39.502 488.099 39.502 488.323 39.2788 488.769C39.0557 488.992 39.0557 489.438 39.0557 489.661C39.0557 490.107 39.0557 490.33 38.8325 490.553C38.8325 490.776 38.8325 491 38.8325 491.446L38.163 504.607C37.9398 507.061 38.6093 508.177 40.1715 507.731Z" fill="#F0C325"/>
<path d="M72.0851 504.607C68.9607 505.5 66.729 505.277 65.3899 504.161C64.0509 503.046 63.1582 500.815 63.1582 497.692L68.9607 495.238C68.9607 497.023 69.1839 498.361 69.6302 499.253C70.0766 500.146 70.9693 500.369 72.0851 500.146C72.9778 499.923 73.4242 499.477 73.8705 499.03C74.3169 498.584 74.5401 497.915 74.5401 497.023C74.5401 495.907 74.3169 495.015 73.8705 494.346C73.4242 493.676 72.5315 493.007 71.1924 492.338L67.8448 490.553C66.9522 490.107 66.2826 489.661 65.8363 489.215C65.3899 488.769 64.9436 488.099 64.4972 487.207C64.0509 486.315 64.0509 485.423 64.0509 484.084C64.2741 481.63 64.9436 479.622 66.729 477.838C68.5144 476.053 70.5229 474.938 73.4242 474.045C74.3169 473.822 75.2096 473.599 75.8791 473.599C76.5486 473.599 77.2181 473.599 77.8877 473.822C78.334 474.045 79.0035 474.269 79.2267 474.492C79.673 474.715 79.8962 475.161 80.1194 475.607C80.3426 476.053 80.5657 476.499 80.7889 476.945C81.0121 477.392 81.0121 478.061 81.0121 478.507C81.0121 478.953 81.0121 479.622 81.0121 480.069L75.2096 482.299C75.2096 481.63 75.2096 481.184 75.2096 480.738C75.2096 480.292 75.2096 479.846 74.9864 479.622C74.9864 479.176 74.7632 478.953 74.5401 478.73C74.3169 478.507 74.0937 478.284 73.8705 478.284C73.6474 478.284 73.201 478.284 72.7547 478.284C72.0851 478.507 71.4156 478.953 70.9693 479.399C70.5229 480.069 70.2998 480.515 70.2998 481.407C70.2998 481.853 70.2998 482.522 70.5229 482.746C70.7461 483.192 70.7461 483.415 71.1924 483.861C71.4156 484.084 71.862 484.53 72.0851 484.53C72.3083 484.753 72.7547 484.976 73.201 485.199L76.5486 486.984C77.2181 487.43 77.8876 487.876 78.334 488.323C78.7803 488.769 79.4499 489.215 79.8962 489.884C80.3426 490.553 80.7889 491.223 81.0121 491.892C81.2352 492.784 81.2353 493.676 81.2353 494.569C81.2353 496.8 80.3426 498.807 78.5572 500.592C76.7718 502.377 74.54 503.938 72.0851 504.607Z" fill="#F0C325"/>
<path d="M84.1367 501.038L85.4758 470.922L99.982 467.353L99.7589 471.592L91.9478 473.599L91.5014 481.63L97.5271 480.069L97.3039 484.307L91.2783 485.869L90.8319 495.238L98.643 493.23L98.4198 497.469L84.1367 501.038Z" fill="#F0C325"/>
<path d="M101.99 496.577L103.329 466.461L113.595 463.784C119.398 462.222 122.076 464.453 121.853 470.253C121.853 471.815 121.406 473.153 120.96 474.492C120.514 475.607 119.844 476.722 118.951 477.615C118.059 478.507 117.166 479.176 116.05 479.622C114.934 480.069 113.818 480.515 112.256 480.961L109.355 481.63L108.685 494.792L101.99 496.577ZM109.578 477.392L111.81 476.946C113.372 476.499 114.265 476.053 114.934 475.161C115.381 474.492 115.827 473.376 115.827 471.815C115.827 470.922 115.827 470.476 115.827 470.03C115.827 469.584 115.604 469.138 115.381 468.915C115.157 468.692 114.711 468.468 114.265 468.245C113.818 468.022 113.149 468.245 112.256 468.468L110.024 468.915L109.578 477.392Z" fill="#F0C325"/>
<path d="M127.655 490.107L128.771 464.453L123.415 465.791L123.638 461.33L140.823 456.868L140.599 461.33L135.466 462.668L134.351 488.323L127.655 490.107Z" fill="#F0C325"/>
<path d="M153.097 473.153L153.32 469.361L163.586 466.684L163.363 470.476L153.097 473.153Z" fill="#F0C325"/>
<path d="M184.341 475.607L185.457 451.514L180.547 454.414L180.771 450.176C181.886 449.507 183.225 448.614 184.341 447.722C185.68 446.83 186.573 445.937 187.243 445.268L192.152 443.93L190.813 474.045L184.341 475.607Z" fill="#F0C325"/>
<path d="M198.848 472.038L199.071 468.022L207.551 454.637C207.551 454.414 207.998 453.968 208.444 453.076C209.114 452.184 209.337 451.514 209.56 451.291C209.783 451.068 210.006 450.399 210.453 449.73C210.899 449.06 211.122 448.391 211.122 447.945C211.345 447.499 211.345 446.83 211.345 446.384C211.345 445.268 211.122 444.599 210.676 444.153C210.23 443.707 209.783 443.707 209.114 443.93C209.114 443.93 208.89 443.93 208.667 443.93C206.882 444.599 205.989 446.16 205.766 449.06V450.399L199.517 451.961V450.399C199.517 449.06 199.74 447.722 200.187 446.607C200.633 445.491 201.079 444.376 201.972 443.26C202.865 442.145 203.757 441.253 204.873 440.583C205.989 439.914 207.551 439.245 209.114 438.799C212.015 438.13 214.247 438.13 215.586 439.245C216.925 440.36 217.594 441.922 217.594 444.599C217.594 445.491 217.371 446.383 217.148 447.053C216.925 447.945 216.478 448.614 216.032 449.507C215.586 450.399 215.139 451.068 214.693 451.737C214.247 452.407 213.8 453.076 213.131 454.191C212.908 454.414 212.684 454.637 212.684 454.861L205.766 465.345L215.586 462.891L215.362 467.353L198.848 472.038Z" fill="#F0C325"/>
<path d="M240.135 461.999C238.349 462.445 236.787 462.668 235.671 462.445C234.332 462.222 233.439 461.999 232.77 461.33C232.1 460.661 231.654 459.768 231.208 458.653C230.985 457.538 230.761 456.199 230.985 454.637L231.431 443.483C231.431 441.922 231.654 440.36 232.1 439.245C232.547 437.906 232.993 436.791 233.886 435.676C234.778 434.56 235.671 433.668 237.01 432.999C238.349 432.329 239.911 431.66 241.697 431.214C245.268 430.322 247.723 430.545 249.062 431.883C250.401 433.222 251.07 435.453 251.07 438.576L250.624 449.73C250.401 453.076 249.508 455.53 247.946 457.761C246.383 459.991 243.482 461.107 240.135 461.999ZM239.019 457.538C239.465 457.538 239.688 457.538 240.358 457.538C240.804 457.314 241.251 457.314 241.697 456.868C242.143 456.645 242.366 456.422 242.59 455.976C242.813 455.753 243.036 455.307 243.036 454.861C243.259 454.414 243.259 453.968 243.259 453.745C243.259 453.299 243.259 453.076 243.259 452.407L243.929 438.353C243.929 437.906 243.929 437.46 243.929 437.014C243.929 436.568 243.929 436.345 243.705 435.899C243.705 435.676 243.482 435.229 243.259 435.229C243.036 435.006 242.813 435.006 242.366 434.783C241.92 434.783 241.474 434.783 241.027 435.006C240.581 435.229 240.135 435.229 239.688 435.453C239.242 435.676 239.019 435.899 238.796 436.122C238.572 436.345 238.349 436.791 238.349 437.237C238.126 437.683 238.126 437.906 238.126 438.353C238.126 438.799 238.126 439.022 238.126 439.691L237.457 453.745C237.457 454.191 237.457 454.637 237.457 455.084C237.457 455.53 237.457 455.753 237.68 456.199C237.68 456.645 237.903 456.868 238.126 457.091C238.349 457.537 238.572 457.538 239.019 457.538Z" fill="#F0C325"/>
<path d="M263.568 455.976C261.782 456.422 260.22 456.645 258.881 456.422C257.542 456.199 256.649 455.753 255.98 455.084C255.31 454.414 254.864 453.522 254.641 452.407C254.418 451.291 254.194 449.953 254.418 448.391L254.864 437.683C254.864 436.122 255.087 434.56 255.534 433.222C255.98 431.883 256.426 430.768 257.319 429.652C257.988 428.537 259.104 427.645 260.443 426.752C261.782 425.86 263.345 425.414 265.13 424.968C266.915 424.522 268.254 424.299 269.593 424.522C270.709 424.522 271.825 424.968 272.495 425.637C273.164 426.306 273.611 426.976 273.834 427.868C274.057 428.76 274.28 429.876 274.057 431.437L273.834 434.114L267.362 435.676L267.585 432.776C267.585 432.329 267.585 432.106 267.585 432.106C267.585 431.883 267.585 431.66 267.585 431.437C267.585 431.214 267.585 430.991 267.585 430.768C267.585 430.545 267.585 430.545 267.362 430.322C267.362 430.099 267.139 429.876 267.139 429.876L266.915 429.652C266.692 429.429 266.692 429.429 266.469 429.429C266.246 429.429 266.023 429.429 265.799 429.429C265.576 429.429 265.353 429.429 264.907 429.652C264.46 429.876 264.014 429.876 263.568 430.322C263.121 430.545 262.898 430.768 262.675 431.214C262.452 431.437 262.229 431.883 262.229 432.329C262.006 432.776 262.006 433.222 262.006 433.445C262.006 433.891 262.006 434.337 262.006 434.783L261.336 448.168C261.336 449.73 261.336 450.622 261.782 451.291C262.229 451.96 262.898 451.96 264.014 451.737C264.46 451.737 264.907 451.514 265.13 451.291C265.353 451.068 265.799 450.845 266.023 450.622C266.246 450.399 266.469 450.176 266.469 449.953C266.692 449.73 266.692 449.507 266.692 449.06C266.692 448.614 266.692 448.391 266.915 448.168C266.915 447.945 266.915 447.499 266.915 447.053L267.139 444.153L273.834 442.591L273.611 445.045C273.611 446.383 273.387 447.722 272.941 448.837C272.495 449.953 272.048 451.068 271.379 451.96C270.709 452.853 269.593 453.968 268.478 454.637C266.692 454.861 265.353 455.53 263.568 455.976Z" fill="#F0C325"/>
<path d="M280.083 451.291L281.199 425.637L275.843 426.975L276.066 422.514L293.25 418.052L293.027 422.514L287.894 423.852L286.778 449.507L280.083 451.291Z" fill="#F0C325"/>
<path d="M304.632 445.045L304.855 441.03L313.336 427.645C313.336 427.422 313.782 426.976 314.228 426.083C314.898 425.191 315.121 424.522 315.344 424.299C315.567 424.075 315.791 423.406 316.237 422.737C316.683 422.068 316.906 421.399 316.906 420.952C317.13 420.506 317.13 419.837 317.13 419.391C317.13 418.275 316.906 417.606 316.46 417.16C316.014 416.714 315.567 416.714 314.898 416.937C314.898 416.937 314.675 416.937 314.451 416.937C312.666 417.606 311.773 419.168 311.55 422.068V423.406L305.301 424.968V423.406C305.301 422.068 305.525 420.729 305.971 419.614C306.417 418.498 306.864 417.383 307.756 416.268C308.649 415.152 309.542 414.26 310.658 413.591C311.773 412.921 313.336 412.252 314.898 411.806C317.799 411.137 320.031 411.137 321.37 412.252C322.709 413.368 323.378 414.929 323.378 417.606C323.378 418.498 323.155 419.391 322.932 420.06C322.709 420.952 322.263 421.845 321.816 422.514C321.37 423.406 320.924 424.075 320.477 424.745C320.031 425.414 319.585 426.083 318.915 427.199C318.692 427.422 318.469 427.645 318.469 427.868L311.55 438.353L321.37 435.899L321.147 440.36L304.632 445.045Z" fill="#F0C325"/>
<path d="M334.537 437.906C331.636 438.576 329.627 438.353 328.065 437.237C326.726 436.122 326.057 434.114 326.057 431.437L326.726 418.052C326.949 415.375 327.619 412.921 329.181 411.137C330.743 409.129 332.975 407.791 335.876 407.121C338.778 406.452 341.009 406.675 342.348 407.791C343.687 408.906 344.357 410.914 344.357 413.591L343.687 426.976C343.464 429.652 342.795 431.883 341.009 433.891C339.447 435.899 337.215 437.237 334.537 437.906ZM334.76 432.999C336.323 432.553 337.215 431.214 337.438 428.537L338.108 415.375C338.108 414.929 338.108 414.483 338.108 414.037C338.108 413.591 338.108 413.368 337.885 412.921C337.662 412.475 337.438 412.252 337.215 412.029C336.769 411.806 336.546 411.806 335.876 412.029C335.43 412.029 335.207 412.252 334.984 412.475C334.76 412.698 334.537 412.921 334.314 413.145C334.091 413.368 334.091 413.591 333.868 414.037C333.645 414.483 333.645 414.706 333.645 414.929C333.645 415.375 333.645 415.598 333.421 415.822C333.421 416.045 333.421 416.268 333.421 416.714L332.752 429.876C332.306 432.329 333.198 433.445 334.76 432.999Z" fill="#F0C325"/>
<path d="M353.953 432.553L355.069 408.46L350.159 411.36L350.382 407.121C351.498 406.452 352.837 405.56 354.176 404.667C355.515 403.775 356.408 402.883 357.078 402.214L361.987 400.875L360.648 430.991L353.953 432.553Z" fill="#F0C325"/>
<path d="M376.94 427.199C374.039 427.868 371.807 427.868 370.692 426.976C369.353 426.083 368.906 424.299 368.906 421.622V421.175L374.932 419.614C374.932 420.952 374.932 421.845 375.378 422.291C375.601 422.737 376.271 422.96 377.387 422.737C378.279 422.514 378.949 421.845 379.395 420.952C379.842 420.06 380.065 418.275 380.065 416.045L380.288 412.921C379.842 413.591 379.395 414.037 378.503 414.706C377.833 415.152 376.94 415.598 375.825 415.821C375.825 415.821 375.825 415.821 375.601 415.821C374.709 416.045 373.816 416.268 372.923 416.045C372.031 416.045 371.361 415.822 370.915 415.375C370.468 414.929 370.022 414.483 369.576 413.814C369.353 413.145 369.129 412.475 368.906 411.583C368.683 410.691 368.683 409.798 368.906 408.906C369.129 401.991 372.254 397.975 378.279 396.414C379.842 395.967 381.181 395.967 382.297 396.19C383.412 396.414 384.305 396.86 384.975 397.529C385.644 398.198 386.091 399.09 386.314 400.206C386.537 401.321 386.76 402.437 386.537 403.998L386.091 414.706C386.091 416.045 385.867 417.16 385.644 418.052C385.421 419.168 385.198 420.06 384.751 421.175C384.305 422.291 383.636 423.183 382.966 423.852C382.297 424.522 381.404 425.414 380.288 425.86C379.172 426.306 378.279 426.752 376.94 427.199ZM377.833 410.914C378.949 410.691 379.618 410.021 380.288 408.906L380.511 404.221C380.511 403.552 380.511 403.106 380.511 402.66C380.511 402.214 380.288 401.767 380.288 401.321C380.065 400.875 379.842 400.652 379.618 400.429C379.172 400.206 378.949 400.206 378.279 400.429C377.833 400.429 377.61 400.652 377.164 400.875C376.94 401.098 376.717 401.321 376.494 401.767C376.271 401.991 376.048 402.437 376.048 402.883C375.825 403.329 375.825 403.775 375.825 404.444C375.825 404.891 375.825 405.56 375.601 406.229C375.601 406.675 375.601 407.121 375.601 407.568C375.601 407.791 375.601 408.237 375.601 408.683C375.601 409.129 375.601 409.352 375.601 409.575C375.601 409.798 375.825 410.021 375.825 410.244C375.825 410.468 376.048 410.691 376.271 410.691C376.494 410.691 376.717 410.914 376.94 410.914C377.164 411.137 377.387 411.137 377.833 410.914Z" fill="#F0C325"/>
</g>
<defs>
<clipPath id="clip0">
<rect width="391" height="520" fill="white"/>
</clipPath>
</defs>
</svg>
